HIERARCHY
ROOT Hips
{
	OFFSET 0.00000 0.00000 0.00000
	CHANNELS 6 Xposition Yposition Zposition Zrotation Yrotation Xrotation 
	JOINT RightUpLegDummy
	{
		OFFSET 0 0 0
		CHANNELS 3 Zrotation Yrotation Xrotation
		JOINT RightUpLeg
		{
			OFFSET -3.52197 -3.41223 0.04002
			CHANNELS 3 Zrotation Yrotation Xrotation
			JOINT RightLeg
			{
				OFFSET 0.00006 -17.42390 1.60435
				CHANNELS 3 Zrotation Yrotation Xrotation
				JOINT RightFoot
				{
					OFFSET 0.06154 -16.50078 -1.63900
					CHANNELS 3 Zrotation Yrotation Xrotation
					JOINT RightToes
					{
						OFFSET 0.00298 -1.73825 3.34613
						CHANNELS 3 Zrotation Yrotation Xrotation
						End Site
						{
							OFFSET 0.00480 -0.05416 3.85043
						}
					}
				}
			}
		}
	}
	JOINT SpineDummy
	{
		OFFSET 0 0 0
		CHANNELS 3 Zrotation Yrotation Xrotation
		JOINT Spine
		{
			OFFSET 0.00000 4.68130 0.00000
			CHANNELS 3 Zrotation Yrotation Xrotation
			JOINT Spine1
			{
				OFFSET -0.00000 10.10138 0.05002
				CHANNELS 3 Zrotation Yrotation Xrotation
				JOINT HEadDummy
				{
					OFFSET 0 0 0
					CHANNELS 3 Zrotation Yrotation Xrotation
					JOINT Head
					{
						OFFSET -0.00000 3.43865 0.00438
						CHANNELS 3 Zrotation Yrotation Xrotation
						End Site
						{
							OFFSET -0.11417 5.02924 0.98962
						}
					}
				}
				JOINT LeftShoulder1Dummy
				{
					OFFSET 0 0 0
					CHANNELS 3 Zrotation Yrotation Xrotation
					JOINT LeftShoulder1
					{
						OFFSET 3.53937 -0.14262 -0.08662
						CHANNELS 3 Zrotation Yrotation Xrotation
						JOINT LeftArm
						{
							OFFSET 4.04833 -0.00133 0.12681
							CHANNELS 3 Zrotation Yrotation Xrotation
							JOINT LeftForeArm
							{
								OFFSET 10.33880 -0.01036 -0.55515
								CHANNELS 3 Zrotation Yrotation Xrotation
								JOINT LeftHand
								{
									OFFSET 8.69677 0.07543 0.40060
									CHANNELS 3 Zrotation Yrotation Xrotation
									End Site
									{
										OFFSET 5.28377 -0.21905 0.59205
									}
								}
							}
						}
					}
				}
				JOINT RightShoulderDummy
				{
					OFFSET 0 0 0
					CHANNELS 3 Zrotation Yrotation Xrotation
					JOINT RightShoulder
					{
						OFFSET -3.53937 -0.14262 -0.08660
						CHANNELS 3 Zrotation Yrotation Xrotation
						JOINT RightArm
						{
							OFFSET -4.04833 -0.00133 0.12683
							CHANNELS 3 Zrotation Yrotation Xrotation
							JOINT RightForeArm
							{
								OFFSET -10.37987 -0.01039 -0.55511
								CHANNELS 3 Zrotation Yrotation Xrotation
								JOINT RightHand
								{
									OFFSET -8.67398 0.07538 0.40058
									CHANNELS 3 Zrotation Yrotation Xrotation
									End Site
									{
										OFFSET -5.24810 -0.21916 0.59204
									}
								}
							}
						}
					}
				}
			}
		}
	}
	JOINT LeftUpLegDummy
	{
		OFFSET 0 0 0
		CHANNELS 3 Zrotation Yrotation Xrotation
		JOINT LeftUpLeg
		{
			OFFSET 3.52197 -3.41223 0.04002
			CHANNELS 3 Zrotation Yrotation Xrotation
			JOINT LeftLeg
			{
				OFFSET -0.00012 -17.42399 1.60337
				CHANNELS 3 Zrotation Yrotation Xrotation
				JOINT LeftFoot
				{
					OFFSET -0.09972 -16.50070 -1.63802
					CHANNELS 3 Zrotation Yrotation Xrotation
					JOINT LeftToes
					{
						OFFSET -0.01575 -1.73823 3.34611
						CHANNELS 3 Zrotation Yrotation Xrotation
						End Site
						{
							OFFSET 0.03150 -0.01868 3.85031
						}
					}
				}
			}
		}
	}
}
MOTION
Frames: 18
Frame Time: 0.033333
-3.4661 38.3151 7.6060 177.8630 18.0589 176.6980 0.0000 0.0000 0.0000 -15.0112 -4.0749 -11.9813 -5.1534 -6.5363 31.5565 18.2684 -0.7137 -7.0432 0.0000 0.0000 -0.0000 0.0000 0.0000 0.0000 -2.9357 0.9208 9.5989 1.3101 0.2150 18.0318 0.0000 0.0000 0.0000 -6.8831 15.0163 -12.8125 0.0000 0.0000 0.0000 -14.1206 -1.0546 0.9596 -48.9257 -14.2319 17.3019 -4.1323 -84.4681 5.1412 24.4423 -3.4214 -1.8486 0.0000 0.0000 0.0000 10.4859 0.6292 0.7340 54.0305 10.9524 22.8016 176.0146 74.1283 161.3613 -13.1929 1.4611 -0.7670 0.0000 0.0000 0.0000 5.1794 -2.5778 -16.7150 1.8610 2.4530 25.8000 -12.8570 0.7205 -5.2222 -0.0000 0.0000 -0.0000
-3.2007 38.3872 7.5848 177.6050 13.5252 177.6290 0.0000 0.0000 0.0000 -16.2802 -1.3596 -11.3188 -6.8365 -9.4943 29.3559 15.7600 -0.8506 -5.3823 0.0000 0.0000 -0.0000 0.0000 0.0000 0.0000 -2.1884 0.5404 10.5467 1.5347 -0.1879 16.0170 0.0000 0.0000 0.0000 -6.2396 12.5169 -12.5065 0.0000 0.0000 0.0000 -12.7508 -0.8446 0.8612 -47.2554 -15.3764 15.8771 -5.2372 -85.2354 5.4244 24.3297 -3.3499 -1.8250 0.0000 0.0000 0.0000 9.3740 1.2197 0.7910 52.6378 10.5808 23.1820 175.8902 73.8534 159.9994 -14.0256 1.1108 -0.7771 0.0000 0.0000 0.0000 5.4133 -6.8783 -17.7276 1.1906 1.4642 24.1408 -13.8616 0.8823 -4.2900 -0.0000 0.0000 -0.0000
-2.8732 38.2523 7.6493 176.7970 7.9037 177.9650 0.0000 0.0000 0.0000 -18.0177 -0.4491 -9.8827 -7.8871 -10.6565 30.3907 16.5786 -0.8568 -5.5832 0.0000 0.0000 -0.0000 0.0000 0.0000 0.0000 -1.1995 0.3048 11.4957 1.3032 -0.2906 14.8259 0.0000 0.0000 0.0000 -5.8168 8.7264 -11.8507 0.0000 0.0000 0.0000 -11.3542 -0.8040 0.7986 -45.9659 -17.9696 15.0185 -4.7322 -84.5148 4.7148 24.0701 -3.2963 -1.7939 0.0000 0.0000 0.0000 7.9834 2.1359 0.8746 51.8026 9.6815 24.8592 175.1238 74.7026 155.8539 -14.8250 1.0064 -0.8094 0.0000 0.0000 0.0000 5.1011 -11.3379 -19.1961 0.3577 0.0156 23.7292 -14.1349 0.9325 -4.0153 -0.0000 0.0000 -0.0000
-2.4842 37.9388 7.7775 175.4630 1.6765 177.7040 0.0000 0.0000 0.0000 -19.9196 -1.3224 -7.4837 -7.6957 -9.3906 33.1416 19.7815 -0.6287 -7.8854 0.0000 0.0000 -0.0000 0.0000 0.0000 0.0000 -0.0365 0.6224 12.3064 1.1574 0.1874 14.7767 0.0000 0.0000 0.0000 -5.7562 3.3186 -11.1603 0.0000 0.0000 0.0000 -10.0515 -0.9453 0.7727 -45.7576 -21.8029 14.5822 -3.3530 -82.9666 4.1677 23.5572 -3.2144 -1.7376 0.0000 0.0000 0.0000 7.1516 2.8739 0.9423 51.3307 8.6544 27.8771 173.5307 76.4854 148.6604 -15.5287 0.5739 -0.7932 0.0000 0.0000 0.0000 3.9425 -14.5796 -20.6308 -0.9474 -2.2285 24.4986 -14.0780 0.9090 -4.1843 -0.0000 0.0000 -0.0000
-2.0269 37.5375 7.9364 173.7720 -4.5144 177.1100 0.0000 0.0000 0.0000 -21.7560 -2.7100 -4.4891 -7.4381 -8.0987 36.1774 22.4070 -0.0528 -11.3018 0.0000 0.0000 -0.0000 0.0000 0.0000 0.0000 1.1625 1.7022 12.8725 1.8394 1.2621 15.8581 0.0000 0.0000 0.0000 -6.1509 -3.3310 -10.9035 0.0000 0.0000 0.0000 -9.3374 -1.1526 0.7790 -46.5570 -25.6488 14.3008 -2.5657 -82.0364 4.5306 23.7589 -3.1287 -1.7360 0.0000 0.0000 0.0000 7.7834 3.3140 1.0454 50.4082 8.2935 31.7188 171.2077 78.7401 140.8703 -16.1439 0.1115 -0.7647 0.0000 0.0000 0.0000 2.1653 -16.4668 -21.6030 -3.0523 -5.5883 25.7410 -14.6771 0.8982 -4.5761 -0.0000 0.0000 -0.0000
-1.4903 37.1441 8.1035 171.9820 -10.2240 176.7340 0.0000 0.0000 0.0000 -23.1918 -3.9828 -1.7380 -8.3067 -8.3147 38.7043 24.6402 0.6776 -14.6903 0.0000 0.0000 -0.0000 0.0000 0.0000 0.0000 2.8225 3.2935 12.9032 3.0762 2.8172 17.8108 0.0000 0.0000 0.0000 -6.8769 -10.4544 -11.1709 0.0000 0.0000 0.0000 -9.4365 -1.3964 0.8241 -47.7563 -28.0518 14.0639 -2.5482 -82.3792 4.9793 25.3013 -3.1721 -1.8641 0.0000 0.0000 0.0000 9.5459 3.8930 1.2512 49.1730 8.6824 35.7930 168.2023 80.9533 133.9520 -17.0042 0.8035 -0.9047 0.0000 0.0000 0.0000 0.4666 -18.0827 -22.3703 -5.3938 -9.1230 26.7337 -16.2993 0.9575 -4.8581 -0.0000 0.0000 -0.0000
-0.8777 36.8032 8.2906 170.2710 -15.6899 177.0280 0.0000 0.0000 0.0000 -24.0379 -5.4985 0.3537 -9.8852 -9.4120 40.4001 27.9168 1.5146 -17.6923 0.0000 0.0000 -0.0000 0.0000 0.0000 0.0000 5.4914 4.8833 12.4526 3.9015 4.6287 19.7976 0.0000 0.0000 0.0000 -7.6806 -17.4854 -11.5692 0.0000 0.0000 0.0000 -10.0122 -1.6920 0.9006 -49.0013 -28.3189 14.1629 -2.7345 -83.1682 5.3701 27.3943 -3.4488 -2.0899 0.0000 0.0000 0.0000 11.4653 4.7866 1.5446 48.5100 9.5327 38.9755 163.5056 82.8509 123.3768 -18.3872 1.3218 -1.0549 0.0000 0.0000 0.0000 -0.7044 -20.4567 -23.4316 -6.9442 -11.4855 27.0468 -18.1757 1.1155 -4.5423 -0.0000 0.0000 -0.0000
-0.2354 36.5481 8.5194 168.7320 -21.4555 178.0810 0.0000 0.0000 0.0000 -24.3863 -7.9048 2.0438 -11.2088 -10.4559 41.1770 31.2040 2.4442 -20.3676 0.0000 0.0000 -0.0000 0.0000 0.0000 0.0000 9.3216 6.0884 11.8927 3.9300 6.4269 20.7707 0.0000 0.0000 0.0000 -8.5302 -24.1712 -11.6453 0.0000 0.0000 0.0000 -10.8769 -1.8495 0.9694 -50.2007 -26.5867 14.9942 -2.4625 -83.3683 5.9909 28.9144 -3.8449 -2.3098 0.0000 0.0000 0.0000 13.0128 5.5408 1.8108 48.4099 11.3082 40.5623 153.7224 84.7169 101.7958 -20.1613 -0.9919 -0.7660 0.0000 0.0000 0.0000 -1.3395 -23.5838 -24.7895 -7.7568 -13.1561 26.3347 -19.4089 1.3920 -3.3188 -0.0000 0.0000 -0.0000
0.3716 36.4019 8.8042 167.2690 -27.1965 179.7200 0.0000 0.0000 0.0000 -24.6816 -11.2681 3.2964 -12.0203 -11.1598 41.4216 32.6741 3.2218 -22.6116 0.0000 0.0000 -0.0000 0.0000 0.0000 0.0000 13.8167 6.9901 11.3950 3.4677 8.1361 20.4612 0.0000 0.0000 0.0000 -9.7048 -30.2172 -11.3265 0.0000 0.0000 0.0000 -12.2813 -1.6132 0.9909 -51.1153 -22.9834 16.4999 -2.0008 -83.0735 6.4593 29.7787 -4.1514 -2.4613 0.0000 0.0000 0.0000 13.9265 5.8513 1.9507 47.5594 14.4253 41.7955 131.4218 86.5815 65.2115 -22.5648 -3.8036 -0.3321 0.0000 0.0000 0.0000 -1.8406 -26.1642 -26.0140 -8.7221 -15.9505 24.4605 -20.0681 1.7558 -1.4803 -0.0000 0.0000 -0.0000
0.8798 36.3364 9.1583 165.8310 -31.7091 -178.4110 0.0000 0.0000 0.0000 -25.3711 -14.9655 3.6100 -12.2180 -11.2072 41.7818 32.6055 3.6670 -24.1547 0.0000 0.0000 -0.0000 0.0000 0.0000 0.0000 18.5521 7.8705 11.1369 2.6793 9.9255 19.3798 0.0000 0.0000 0.0000 -11.4339 -35.0994 -10.7990 0.0000 0.0000 0.0000 -14.0869 -0.9964 0.9455 -51.5995 -17.2267 18.2979 -2.2282 -83.0767 6.1100 30.3336 -4.2259 -2.5294 0.0000 0.0000 0.0000 13.7533 5.8915 1.9445 45.2524 18.1409 42.7640 111.1505 87.1749 33.5449 -26.0358 -3.4241 -0.4706 0.0000 0.0000 0.0000 -2.6991 -26.7298 -26.7326 -9.5418 -19.5137 21.7926 -20.5752 2.1580 0.5373 -0.0000 0.0000 -0.0000
1.2552 36.2714 9.5935 164.5980 -34.4014 -176.8290 0.0000 0.0000 0.0000 -26.4796 -18.2979 2.8073 -11.6354 -10.2510 42.8219 32.3902 3.8482 -24.8676 0.0000 0.0000 -0.0000 0.0000 0.0000 0.0000 23.5400 8.6341 11.5604 1.3185 11.8463 17.8663 0.0000 0.0000 0.0000 -13.6258 -38.3744 -10.1172 0.0000 0.0000 0.0000 -15.4727 -0.3115 0.8509 -51.7945 -9.3120 20.2108 -3.0895 -83.5611 5.2772 30.3336 -4.2061 -2.5244 0.0000 0.0000 0.0000 12.4324 5.6801 1.7914 42.7514 21.7668 40.5035 118.3645 87.0070 35.5496 -29.1077 -0.0159 -1.3638 0.0000 0.0000 0.0000 -3.8992 -25.4471 -27.1271 -9.0432 -20.4861 19.4753 -20.3010 2.5209 2.7983 -0.0000 0.0000 -0.0000
1.5265 36.1375 10.0952 163.6390 -35.9223 -175.8140 0.0000 0.0000 0.0000 -27.7062 -20.8254 1.2963 -10.7779 -8.7751 44.8631 32.4165 3.8645 -24.9128 0.0000 0.0000 -0.0000 0.0000 0.0000 0.0000 28.3622 8.9303 12.8282 -0.4350 13.5404 15.9081 0.0000 0.0000 0.0000 -16.1220 -40.0471 -9.2501 0.0000 0.0000 0.0000 -15.9769 0.0504 0.7861 -51.7937 -0.2517 22.0979 -3.4155 -83.7674 5.0405 29.4053 -4.4390 -2.5010 0.0000 0.0000 0.0000 10.7685 4.9015 1.5137 41.5876 26.2591 32.6722 121.2038 86.9233 38.3337 -30.3136 3.3954 -2.3120 0.0000 0.0000 0.0000 -4.8644 -24.0934 -27.8480 -7.3962 -17.0352 19.1940 -18.3681 2.6453 5.1344 -0.0000 0.0000 -0.0000
1.7573 35.9074 10.6024 162.7180 -37.0492 -175.1170 0.0000 0.0000 0.0000 -28.8287 -22.3942 -0.4742 -10.4626 -7.6441 47.7330 32.3244 3.8398 -24.8687 0.0000 0.0000 -0.0000 0.0000 0.0000 0.0000 31.9208 8.8006 14.3788 -1.5815 14.5635 13.7900 0.0000 0.0000 0.0000 -18.8704 -40.4516 -8.4252 0.0000 0.0000 0.0000 -16.1172 -0.0785 0.8199 -51.6160 8.1466 23.4810 -2.4782 -82.8540 5.5889 27.6574 -4.9909 -2.4743 0.0000 0.0000 0.0000 9.6133 3.5112 1.1898 41.2962 32.9820 20.0527 119.1575 86.9972 33.8959 -31.1803 3.6253 -2.4452 0.0000 0.0000 0.0000 -5.2551 -23.6665 -29.3059 -6.0600 -12.3523 21.9859 -15.8439 2.4493 6.3950 -0.0000 0.0000 -0.0000
1.9820 35.5921 11.0396 161.6880 -37.8879 -174.3060 0.0000 0.0000 0.0000 -29.6908 -23.1858 -2.3708 -10.8494 -7.0873 50.7354 32.1636 3.9826 -25.4352 0.0000 0.0000 -0.0000 0.0000 0.0000 0.0000 33.6803 8.6316 15.4564 -1.5542 14.8858 12.1096 0.0000 0.0000 0.0000 -21.4683 -39.8993 -8.0005 0.0000 0.0000 0.0000 -16.4547 -0.4807 0.9241 -51.5044 14.2029 23.9890 -1.2949 -80.7876 6.6593 25.4426 -5.5569 -2.3888 0.0000 0.0000 0.0000 8.9475 2.0735 0.9131 40.6243 41.0213 8.0461 113.1052 87.1565 26.4065 -34.3875 3.3700 -2.6453 0.0000 0.0000 0.0000 -5.1711 -23.3876 -31.3837 -6.3950 -10.5590 27.0027 -14.4915 2.1466 5.7006 -0.0000 0.0000 -0.0000
2.1805 35.2501 11.3660 160.7970 -38.4247 -173.3190 0.0000 0.0000 0.0000 -30.0871 -23.6352 -4.2096 -11.5232 -6.8767 53.1240 32.2132 4.3623 -26.7247 0.0000 0.0000 -0.0000 0.0000 0.0000 0.0000 34.3331 8.4975 15.7161 -1.0846 14.7571 11.1155 0.0000 0.0000 0.0000 -23.0356 -38.7191 -7.9486 0.0000 0.0000 0.0000 -16.8159 -0.8290 1.0191 -51.6464 17.2103 23.9338 -0.5968 -78.4278 7.7351 23.2237 -5.8340 -2.2247 0.0000 0.0000 0.0000 8.2104 1.2524 0.7473 39.5028 47.6656 1.0685 94.6823 87.3595 10.8827 -37.0481 4.3443 -3.1732 0.0000 0.0000 0.0000 -4.6638 -22.5478 -33.5415 -8.2608 -11.3527 31.8856 -14.4159 1.8989 3.7926 -0.0000 0.0000 -0.0000
2.3191 34.9878 11.5821 160.3800 -38.8911 -172.5040 0.0000 0.0000 0.0000 -29.9656 -24.0549 -5.5718 -12.1691 -6.8782 54.5378 32.3556 4.7558 -28.0057 0.0000 0.0000 -0.0000 0.0000 0.0000 0.0000 34.7119 8.1354 15.2757 -1.0425 14.2803 10.6760 0.0000 0.0000 0.0000 -23.1260 -37.4491 -7.9375 0.0000 0.0000 0.0000 -16.9166 -0.9905 1.0612 -51.8867 17.6027 23.9072 -0.2284 -76.7522 8.8040 21.6778 -5.8847 -2.0784 0.0000 0.0000 0.0000 7.4240 1.0988 0.6910 38.7728 50.7704 -0.7949 69.3677 87.1814 -11.8522 -37.3159 4.9792 -3.4078 0.0000 0.0000 0.0000 -3.9005 -21.1896 -34.9203 -9.9604 -12.5311 34.3437 -15.5239 1.8194 2.0599 -0.0000 0.0000 -0.0000
2.3908 34.9147 11.7046 160.4740 -39.2692 -172.1460 0.0000 0.0000 0.0000 -29.4857 -24.3049 -6.2522 -12.7569 -7.1225 54.9110 32.3541 4.8567 -28.3520 0.0000 0.0000 -0.0000 0.0000 0.0000 0.0000 34.6606 7.4740 14.5726 -1.1444 13.4030 10.6843 0.0000 0.0000 0.0000 -22.3265 -36.5587 -8.0223 0.0000 0.0000 0.0000 -16.8968 -0.9694 1.0554 -52.2122 16.3739 24.0555 0.0439 -76.0263 9.9538 21.1459 -5.9166 -2.0308 0.0000 0.0000 0.0000 7.3611 1.1920 0.7025 39.4572 50.2779 1.0637 57.6473 86.8786 -23.8611 -37.0481 4.7028 -3.2920 0.0000 0.0000 0.0000 -3.4089 -19.3949 -34.8773 -10.7787 -13.7964 33.8620 -17.5692 1.9287 1.1443 -0.0000 0.0000 -0.0000
2.3972 35.0840 11.7518 160.9300 -39.1368 -172.1370 0.0000 0.0000 0.0000 -28.7605 -24.1025 -6.5010 -13.1904 -7.6390 54.0915 32.1931 4.5828 -27.4970 0.0000 0.0000 -0.0000 0.0000 0.0000 0.0000 33.6194 6.7389 14.0258 -0.6192 12.1787 11.0460 0.0000 0.0000 0.0000 -21.4992 -35.9799 -8.7109 0.0000 0.0000 0.0000 -16.8902 -0.8141 1.0186 -52.9213 14.3827 24.2234 0.2304 -75.8990 10.7653 21.1327 -5.8852 -2.0240 0.0000 0.0000 0.0000 8.2922 1.2936 0.7576 41.6711 47.6674 4.9944 61.8598 87.0090 -20.2635 -36.6740 4.1337 -3.0738 0.0000 0.0000 0.0000 -3.4223 -17.3699 -33.7281 -11.2478 -15.5488 31.7509 -18.8630 2.0754 1.1577 -0.0000 0.0000 -0.0000
